<?xml version="1.0" encoding="utf-8"?>
<!-- Generator: Adobe Illustrator 23.0.3, SVG Export Plug-In . SVG Version: 6.00 Build 0)  -->
<svg version="1.1" id="Layer_1" xmlns="http://www.w3.org/2000/svg" xmlns:xlink="http://www.w3.org/1999/xlink" x="0px" y="0px"
	 viewBox="0 0 350 102" style="enable-background:new 0 0 350 102;" xml:space="preserve">
<style type="text/css">
	.st0{fill:#FFFFFF;}
	.st1{fill:url(#SVGID_1_);}
	.st2{fill:#E73330;}
	.st3{fill:url(#SVGID_2_);}
	.st4{fill:#C9CED3;}
</style>
<image style="overflow:visible;" width="339" height="100" xlink:href="geoprod-beta-version-bcg-blanc.png"  transform="matrix(1 0 0 1 474 -223.3511)">
</image>
<path class="st0" d="M32.9,15.8c5.1,0,10.6,2.3,14.5,5.9c0.2,0.1,0.4,0.1,0.5,0l7.9-9.7c0.1-0.2,0.1-0.4,0-0.5
	c-5.9-5-14.7-8.1-23.1-8.1C15.1,3.4,2,15.6,2,31.9c0,16.4,12.2,28.7,28.5,28.7c4.7,0,9.6-1.7,13.6-4.3c0.3-0.2,0.6,0,0.6,0.3v3
	c0,0.2,0.2,0.4,0.4,0.4h10.1c0.2,0,0.4-0.2,0.4-0.4v-28c0-0.4-0.3-0.8-0.8-0.8H43.2c-0.2,0-0.4,0.2-0.4,0.4v11.9
	c0,0.1,0,0.2-0.1,0.3c-2.6,2.9-6.5,4.7-10.6,4.7c-8.6,0-15.1-7-15.1-16.2C17.1,22.8,24,15.8,32.9,15.8z"/>
<path class="st0" d="M84.3,16.3c-13.9,0.1-22.6,9.1-22.6,22.4c0,13.2,9.4,22,23.4,22c8,0,14.6-2.8,19.6-8.5c0.1-0.2,0.1-0.4,0-0.5
	l-7.5-6.7c-0.1-0.1-0.4-0.1-0.5,0c-3.2,3.3-6.8,5-10.6,5c-4,0-7.1-2-8.8-5.5c-0.1-0.2,0-0.5,0.3-0.5l28.3-6.8c0.2,0,0.3-0.2,0.3-0.4
	C105.7,24,97.1,16.2,84.3,16.3z M76.5,36C76.3,36,76,35.8,76,35.6c0.6-5.9,3.9-9.2,8.9-9.2c3.4,0,6,1.7,7.1,5.3
	c0.1,0.2-0.1,0.4-0.3,0.5L76.5,36z"/>
<path class="st0" d="M188.8,4.4h-24.3c-0.2,0-0.4,0.2-0.4,0.4v55.5c0,0.2,0.2,0.4,0.4,0.4h13.9c0.2,0,0.4-0.2,0.4-0.4V45.4
	c0-0.2,0.2-0.4,0.4-0.4h9.6c14.4,0,22.6-7.7,22.6-20.9C211.4,11.6,203.1,4.4,188.8,4.4z M188.1,33.4h-8.9c-0.2,0-0.4-0.2-0.4-0.4
	V16.5c0-0.2,0.2-0.4,0.4-0.4h8.9c5.9,0,9.4,3,9.4,8.5C197.4,30.3,194,33.4,188.1,33.4z"/>
<path class="st0" d="M232.9,23.2v-5.6c0-0.2-0.2-0.4-0.4-0.4H219c-0.2,0-0.4,0.2-0.4,0.4v42.6c0,0.2,0.2,0.4,0.4,0.4h13.5
	c0.2,0,0.4-0.2,0.4-0.4V38.5c0,0,0,0,0-0.1c0.7-5.9,5.8-9.4,13.5-8.7c0.2,0,0.4-0.1,0.4-0.4V17.1c0-0.2-0.2-0.4-0.4-0.4
	c-5.5,0.1-10,2.5-12.9,6.7C233.3,23.7,232.9,23.6,232.9,23.2z"/>
<path class="st0" d="M273.2,16.3c-14.3,0-23.6,8.8-23.6,22.1c0,13.4,9.4,22.2,23.6,22.2c14.3,0,23.7-8.8,23.7-22.2
	C296.9,25.1,287.5,16.3,273.2,16.3z M273.2,49.4c-5.5,0-9.3-4.3-9.3-10.8c0-6.4,3.8-10.7,9.3-10.7c5.6,0,9.4,4.3,9.4,10.7
	C282.6,45.1,278.8,49.4,273.2,49.4z"/>
<path class="st0" d="M333.7,1v20.2c0,0.4-0.5,0.6-0.8,0.3c-3-3.4-7.2-5.3-12.4-5.3c-11.9,0-19.9,8.7-19.9,22
	c0,13.5,8,22.4,20.2,22.4c5,0,9.1-1.8,12.1-5.2c0.3-0.3,0.8-0.1,0.8,0.3v4c0,0.2,0.2,0.4,0.4,0.4h13.4c0.2,0,0.4-0.2,0.4-0.4V1
	c0-0.2-0.2-0.4-0.4-0.4h-13.4C333.9,0.6,333.7,0.8,333.7,1z M324.4,49.4c-5.6,0-9.4-4.4-9.4-10.8c0-6.4,3.8-10.8,9.4-10.8
	c5.5,0,9.3,4.3,9.3,10.8C333.7,45,330,49.4,324.4,49.4z"/>
<linearGradient id="SVGID_1_" gradientUnits="userSpaceOnUse" x1="109.8181" y1="37.358" x2="159.3302" y2="37.358">
	<stop  offset="0" style="stop-color:#006EA8"/>
	<stop  offset="0.2168" style="stop-color:#0084BF"/>
	<stop  offset="0.5158" style="stop-color:#009DD9"/>
	<stop  offset="0.7859" style="stop-color:#00ACE9"/>
	<stop  offset="1" style="stop-color:#00B1EE"/>
</linearGradient>
<path class="st1" d="M134.6,14.1c-13.7,0-24.8,10.4-24.8,23.3c0,5.7,2.1,10.8,5.7,14.9c0.1,0.1,0.1,0.4,0,0.5l-5.6,7.2
	c-0.2,0.3,0,0.7,0.3,0.7h12.6c0.1,0,0.2-0.1,0.3-0.2l1.4-1.8l4.6-5.9c0.2-0.2,0.1-0.5-0.1-0.6c-3.1-1.5-5.7-4.3-7.3-7.5
	c-1.2-2.3-1.8-4.9-1.8-7.4c0-7.9,6.5-14.4,14.6-14.4s14.6,6.4,14.6,14.4c0,2.6-0.7,5.3-2,7.7c-1.7,3.2-4.3,5.8-7.4,7.3
	c-0.2,0.1-0.3,0.4-0.2,0.6l4.6,5.9l1.3,1.7c0.1,0.1,0.2,0.2,0.3,0.2h12.6c0.3,0,0.5-0.4,0.3-0.7l-5.4-7c-0.1-0.2-0.1-0.4,0-0.5
	c3.7-4.1,5.9-9.4,5.9-15.1C159.3,24.5,148.2,14.1,134.6,14.1z"/>
<path class="st2" d="M143.9,66.7l-1.5-2l-7.7-10.4c-0.2-0.2-0.5-0.2-0.6,0l-7.7,10.4l-1.5,2l-0.1,0.1l-1,1.3
	c-0.2,0.3,0.1,0.7,0.4,0.6l2.6-0.9l3.4-1.1l0.6-0.2l3.5-1.2c0.1,0,0.2,0,0.2,0l3.5,1.2l0.6,0.2l3.4,1.2l2.5,0.9
	c0.3,0.1,0.6-0.3,0.4-0.6l-1-1.3L143.9,66.7z"/>
<g>
	<linearGradient id="SVGID_2_" gradientUnits="userSpaceOnUse" x1="109.8413" y1="29.8361" x2="159.3534" y2="29.8361">
		<stop  offset="0" style="stop-color:#00B1EE"/>
		<stop  offset="0.2141" style="stop-color:#00ACE9"/>
		<stop  offset="0.4842" style="stop-color:#009DD9"/>
		<stop  offset="0.7832" style="stop-color:#0084BF"/>
		<stop  offset="1" style="stop-color:#006EA8"/>
	</linearGradient>
	<path class="st3" d="M120.1,38.3c0-0.4,0-0.7,0-1.1c0-7.9,6.5-14.4,14.6-14.4c5.3,0,9.9,2.8,12.5,6.9c1.2-0.1,2.4-0.1,3.6-0.1
		c2.6,0,5.1,0.2,7.5,0.5c-3.2-9.4-12.5-16.1-23.6-16.1c-13.7,0-24.8,10.4-24.8,23.3c0,2.9,0.6,5.7,1.6,8.2
		C113.9,42.9,116.8,40.5,120.1,38.3z"/>
</g>
<g>
	<g>
		<path class="st4" d="M236.8,78.4l-5.7,13.3h-3.2l-5.7-13.3h3.2l4.1,9.9l4.3-9.9H236.8z"/>
		<path class="st4" d="M250.8,86.1h-10.4c0.2,1,0.7,1.8,1.4,2.3c0.8,0.6,1.7,0.9,2.9,0.9c1.5,0,2.7-0.5,3.6-1.4l1.7,1.9
			c-0.6,0.7-1.4,1.3-2.3,1.6c-0.9,0.4-1.9,0.5-3.1,0.5c-1.5,0-2.8-0.3-3.9-0.9c-1.1-0.6-2-1.4-2.6-2.4c-0.6-1-0.9-2.2-0.9-3.5
			c0-1.3,0.3-2.5,0.9-3.5c0.6-1,1.4-1.8,2.5-2.4s2.2-0.9,3.5-0.9c1.3,0,2.5,0.3,3.5,0.9c1,0.6,1.8,1.4,2.4,2.4
			c0.6,1,0.9,2.2,0.9,3.6C250.9,85.4,250.9,85.7,250.8,86.1z M241.6,81.7c-0.7,0.6-1.1,1.4-1.3,2.4h7.6c-0.1-1-0.5-1.7-1.2-2.3
			c-0.7-0.6-1.5-0.9-2.5-0.9C243.2,80.8,242.3,81.1,241.6,81.7z"/>
		<path class="st4" d="M261.6,78.3v3c-0.3,0-0.5-0.1-0.7-0.1c-1.2,0-2.2,0.4-2.8,1.1c-0.7,0.7-1,1.7-1,3.1v6.5h-3.1V78.4h3v1.9
			C257.7,79,259.3,78.3,261.6,78.3z"/>
		<path class="st4" d="M265.2,91.5c-1-0.3-1.9-0.6-2.5-1.1l1.2-2.4c0.6,0.4,1.3,0.7,2.2,1c0.8,0.2,1.7,0.4,2.5,0.4
			c1.9,0,2.8-0.5,2.8-1.5c0-0.5-0.2-0.8-0.7-1c-0.5-0.2-1.2-0.4-2.3-0.5c-1.1-0.2-2-0.4-2.7-0.6c-0.7-0.2-1.3-0.6-1.8-1.1
			c-0.5-0.5-0.8-1.3-0.8-2.3c0-1.3,0.5-2.3,1.6-3c1.1-0.8,2.5-1.1,4.3-1.1c0.9,0,1.8,0.1,2.7,0.3c0.9,0.2,1.7,0.5,2.2,0.8l-1.2,2.4
			c-1.1-0.7-2.4-1-3.8-1c-0.9,0-1.6,0.1-2.1,0.4c-0.5,0.3-0.7,0.6-0.7,1.1c0,0.5,0.3,0.9,0.8,1.1c0.5,0.2,1.3,0.4,2.4,0.6
			c1.1,0.2,1.9,0.4,2.6,0.6c0.7,0.2,1.3,0.6,1.8,1.1c0.5,0.5,0.7,1.2,0.7,2.2c0,1.2-0.5,2.2-1.6,3c-1.1,0.7-2.6,1.1-4.4,1.1
			C267.3,91.9,266.2,91.8,265.2,91.5z"/>
		<path class="st4" d="M277.3,75.7c-0.4-0.4-0.6-0.8-0.6-1.3c0-0.5,0.2-1,0.6-1.3c0.4-0.4,0.9-0.5,1.4-0.5s1,0.2,1.4,0.5
			c0.4,0.3,0.6,0.8,0.6,1.3c0,0.5-0.2,1-0.6,1.4c-0.4,0.4-0.9,0.6-1.4,0.6C278.1,76.3,277.6,76.1,277.3,75.7z M277.1,78.4h3.1v13.3
			h-3.1V78.4z"/>
		<path class="st4" d="M286.7,91.1c-1.1-0.6-1.9-1.4-2.5-2.4c-0.6-1-0.9-2.2-0.9-3.5s0.3-2.5,0.9-3.5c0.6-1,1.4-1.8,2.5-2.4
			c1.1-0.6,2.3-0.9,3.6-0.9c1.4,0,2.6,0.3,3.7,0.9c1.1,0.6,1.9,1.4,2.5,2.4c0.6,1,0.9,2.2,0.9,3.5s-0.3,2.5-0.9,3.5
			c-0.6,1-1.5,1.8-2.5,2.4c-1.1,0.6-2.3,0.9-3.7,0.9C289,91.9,287.7,91.6,286.7,91.1z M293.1,88.1c0.7-0.8,1.1-1.8,1.1-3
			c0-1.2-0.4-2.3-1.1-3c-0.7-0.8-1.7-1.1-2.8-1.1c-1.1,0-2.1,0.4-2.8,1.1c-0.7,0.8-1.1,1.8-1.1,3c0,1.2,0.4,2.3,1.1,3
			c0.7,0.8,1.7,1.1,2.8,1.1C291.4,89.3,292.4,88.9,293.1,88.1z"/>
		<path class="st4" d="M312,79.8c1,1,1.5,2.4,1.5,4.4v7.6h-3.1v-7.2c0-1.2-0.3-2-0.8-2.6c-0.5-0.6-1.3-0.9-2.3-0.9
			c-1.1,0-2.1,0.3-2.7,1c-0.7,0.7-1,1.7-1,3v6.7h-3.1V78.4h3v1.7c0.5-0.6,1.2-1.1,1.9-1.4c0.8-0.3,1.7-0.5,2.6-0.5
			C309.6,78.3,311,78.8,312,79.8z"/>
		<path class="st4" d="M329.9,85.2c0.6,0.7,1,1.5,1,2.6c0,0.8-0.2,1.5-0.6,2.1c-0.4,0.6-1,1.1-1.8,1.5c-0.8,0.4-1.8,0.6-2.9,0.6
			c-1,0-1.9-0.1-2.8-0.4c-0.9-0.3-1.6-0.7-2.3-1.1l1.1-1.9c0.5,0.4,1.1,0.7,1.8,1c0.7,0.2,1.4,0.4,2.1,0.4c0.9,0,1.6-0.2,2.1-0.5
			c0.5-0.4,0.8-0.9,0.8-1.5c0-0.6-0.2-1.1-0.7-1.5c-0.5-0.3-1.2-0.5-2.2-0.5h-1.2v-1.7l3-3.6h-6.1v-2.1h9.1v1.7L327,84
			C328.3,84.1,329.2,84.6,329.9,85.2z"/>
		<path class="st4" d="M332.8,91.5c-0.3-0.3-0.5-0.7-0.5-1.1c0-0.5,0.1-0.9,0.4-1.1c0.3-0.3,0.7-0.4,1.1-0.4c0.4,0,0.8,0.1,1.1,0.4
			c0.3,0.3,0.4,0.7,0.4,1.1c0,0.5-0.2,0.8-0.5,1.1c-0.3,0.3-0.7,0.4-1.1,0.4C333.5,92,333.1,91.8,332.8,91.5z"/>
		<path class="st4" d="M339.6,91.2c-0.8-0.5-1.5-1.3-2-2.4c-0.5-1-0.7-2.3-0.7-3.7c0-1.4,0.2-2.7,0.7-3.7c0.5-1,1.1-1.8,2-2.4
			c0.8-0.5,1.8-0.8,2.9-0.8s2,0.3,2.9,0.8c0.8,0.5,1.5,1.3,2,2.4c0.5,1,0.7,2.3,0.7,3.7c0,1.4-0.2,2.7-0.7,3.7c-0.5,1-1.1,1.8-2,2.4
			c-0.8,0.5-1.8,0.8-2.9,0.8S340.4,91.7,339.6,91.2z M344.7,88.7c0.6-0.8,0.8-2,0.8-3.5c0-1.6-0.3-2.7-0.8-3.5
			c-0.6-0.8-1.3-1.2-2.3-1.2c-0.9,0-1.7,0.4-2.2,1.2c-0.6,0.8-0.8,2-0.8,3.5c0,1.6,0.3,2.7,0.8,3.5c0.6,0.8,1.3,1.2,2.2,1.2
			C343.4,89.9,344.1,89.5,344.7,88.7z"/>
	</g>
	<path class="st4" d="M217.9,79.4L217.9,79.4L217.9,79.4c-0.3-0.3-0.6-0.7-1-1c0.2-0.9,0.4-1.5,0.4-2c0-1.9-0.7-3.5-2-4.9
		c-1.3-1.3-3-2-4.9-2c-1.9,0-3.6,0.7-5,2.1c-1.4,1.4-2.1,3.1-2.1,4.9v13.7v0.2v7.6c0,1.2,0.9,2.1,2.1,2.1c1.2,0,2.1-0.9,2.1-2.1v-7
		c0.3,0.2,0.6,0.4,1,0.7l0.1,0.1l0.1,0c0.7,0.3,1,0.4,1.5,0.5c0.5,0.1,1,0.2,1.6,0.2c2.2,0,4.1-0.8,5.7-2.5l0,0l0,0l0,0c0,0,0,0,0,0
		c0,0,0,0,0.1-0.1l0,0l0,0l0,0c0.7-0.9,1.3-1.9,1.6-3c0.3-0.9,0.4-1.8,0.4-2.8C219.6,82.4,219,80.8,217.9,79.4z M207.4,75.8
		c0-0.4,0.1-0.9,0.8-1.6c0.6-0.5,1.3-0.8,2.1-0.8c0.8,0,1.5,0.3,2,0.8c0.6,0.6,0.8,1.2,0.8,2c0,0.6-0.2,1.2-0.5,1.7l0,0l0,0
		c0,0.1-0.2,0.3-0.5,0.6l-1,1.1l1.3,0.7c0.9,0.5,1.4,0.9,1.6,1.1c1,0.9,1.4,1.9,1.4,3.1c0,1.1-0.4,2-1.2,2.8
		c-0.8,0.8-1.7,1.2-2.8,1.2c-0.7,0-1.5-0.2-2.3-0.7l0,0c0,0-0.1,0-0.1-0.1c-0.2-0.1-0.5-0.4-1-0.9l-0.8-0.8V75.8z"/>
</g>
</svg>
